<svg id="visual" viewBox="0 0 900 600" width="900" height="600" xmlns="http://www.w3.org/2000/svg" xmlns:xlink="http://www.w3.org/1999/xlink" version="1.1"><path d="M568 600L603.7 583.3C639.3 566.7 710.7 533.3 715.7 500C720.7 466.7 659.3 433.3 623 400C586.7 366.7 575.3 333.3 587 300C598.7 266.7 633.3 233.3 643.3 200C653.3 166.7 638.7 133.3 622.8 100C607 66.7 590 33.3 581.5 16.7L573 0L900 0L900 16.7C900 33.3 900 66.7 900 100C900 133.3 900 166.7 900 200C900 233.3 900 266.7 900 300C900 333.3 900 366.7 900 400C900 433.3 900 466.7 900 500C900 533.3 900 566.7 900 583.3L900 600Z" fill="#F7770F" stroke-linecap="round" stroke-linejoin="miter"></path></svg>